# xmcd CD database file
#
# Track frame offsets:
#	150
#	28038
#	74309
#	102517
#	128080
#	164705
#	196686
#	215641
#	239439
#
# Disc length: 3591 seconds
#
# Revision: 2
# Processed by: cddbd v1.5.2PL0 Copyright (c) Steve Scherf et al.
# Submitted via: CDex 1.84
#
DISCID=830e0509
DTITLE=GIUSEPPE LA PUSATA TRIO - Unknown CD for MusicBrainz and FreeDB
DYEAR=2018
DGENRE=Jazz
TTITLE0=SONG FOR BILBAO
TTITLE1=SPEAK NO EVIL
TTITLE2=GREY CLOUDS
TTITLE3=GIANT STEPS
TTITLE4=CINDERELLA
TTITLE5=BOLIVIA
TTITLE6=IN A SUMMER DAY
TTITLE7=MONK'S DREAM
TTITLE8=FIRST SONG
EXTD=YEAR: 2018
EXTT0=
EXTT1=
EXTT2=
EXTT3=
EXTT4=
EXTT5=
EXTT6=
EXTT7=
EXTT8=
PLAYORDER=
